<svg xmlns="http://www.w3.org/2000/svg" width="38" height="38" viewBox="0 0 38 38"><defs><style>.a{fill:#9c9ca8;}.b,.d{fill:none;}.b{stroke:#9c9ca8;}.c{stroke:none;}</style></defs><g transform="translate(-210 -8430)"><g transform="translate(98.381 8438)"><path class="a" d="M132.441,7.208v-1.9a4.176,4.176,0,0,1,.04-.661,1.283,1.283,0,0,1,.18-.461.736.736,0,0,1,.454-.314,3.231,3.231,0,0,1,.835-.087h1.9V0h-3.03a4.932,4.932,0,0,0-3.778,1.248,5.257,5.257,0,0,0-1.148,3.678V7.208h-2.27V11h2.269V22h4.552V11h3.03l.4-3.791Z" transform="translate(0)"/></g><g class="b" transform="translate(210 8430)"><circle class="c" cx="19" cy="19" r="19"/><circle class="d" cx="19" cy="19" r="18.5"/></g></g></svg>