<svg xmlns="http://www.w3.org/2000/svg" width="228.636" height="236.278" viewBox="0 0 228.636 236.278"><defs><style>.a{fill:#2dca73;}</style></defs><g transform="translate(1807.126 -5733.496) rotate(17)"><path class="a" d="M4,0,8,6H0Z" transform="matrix(0.921, 0.391, -0.391, 0.921, 68.63, 5974.487)"/><path class="a" d="M4,0,8,6H0Z" transform="matrix(0.921, 0.391, -0.391, 0.921, 87.96, 5982.692)"/><path class="a" d="M4,0,8,6H0Z" transform="matrix(0.921, 0.391, -0.391, 0.921, 107.291, 5990.897)"/><path class="a" d="M4,0,8,6H0Z" transform="matrix(0.921, 0.391, -0.391, 0.921, 126.621, 5999.103)"/><path class="a" d="M4,0,8,6H0Z" transform="matrix(0.921, 0.391, -0.391, 0.921, 145.952, 6007.308)"/><path class="a" d="M4,0,8,6H0Z" transform="matrix(0.921, 0.391, -0.391, 0.921, 165.283, 6015.514)"/><path class="a" d="M4,0,8,6H0Z" transform="matrix(0.921, 0.391, -0.391, 0.921, 184.613, 6023.719)"/><path class="a" d="M4,0,8,6H0Z" transform="matrix(0.921, 0.391, -0.391, 0.921, 61.206, 5991.977)"/><path class="a" d="M4,0,8,6H0Z" transform="matrix(0.921, 0.391, -0.391, 0.921, 80.536, 6000.182)"/><path class="a" d="M4,0,8,6H0Z" transform="matrix(0.921, 0.391, -0.391, 0.921, 99.867, 6008.387)"/><path class="a" d="M4,0,8,6H0Z" transform="matrix(0.921, 0.391, -0.391, 0.921, 119.198, 6016.592)"/><path class="a" d="M4,0,8,6H0Z" transform="matrix(0.921, 0.391, -0.391, 0.921, 138.528, 6024.798)"/><path class="a" d="M4,0,8,6H0Z" transform="matrix(0.921, 0.391, -0.391, 0.921, 157.859, 6033.003)"/><path class="a" d="M4,0,8,6H0Z" transform="matrix(0.921, 0.391, -0.391, 0.921, 177.189, 6041.208)"/><path class="a" d="M4,0,8,6H0Z" transform="matrix(0.921, 0.391, -0.391, 0.921, 53.782, 6009.466)"/><path class="a" d="M4,0,8,6H0Z" transform="matrix(0.921, 0.391, -0.391, 0.921, 73.112, 6017.671)"/><path class="a" d="M4,0,8,6H0Z" transform="matrix(0.921, 0.391, -0.391, 0.921, 92.443, 6025.876)"/><path class="a" d="M4,0,8,6H0Z" transform="matrix(0.921, 0.391, -0.391, 0.921, 111.774, 6034.082)"/><path class="a" d="M4,0,8,6H0Z" transform="matrix(0.921, 0.391, -0.391, 0.921, 131.104, 6042.288)"/><path class="a" d="M4,0,8,6H0Z" transform="matrix(0.921, 0.391, -0.391, 0.921, 150.435, 6050.493)"/><path class="a" d="M4,0,8,6H0Z" transform="matrix(0.921, 0.391, -0.391, 0.921, 169.765, 6058.698)"/><path class="a" d="M4,0,8,6H0Z" transform="matrix(0.921, 0.391, -0.391, 0.921, 46.358, 6026.956)"/><path class="a" d="M4,0,8,6H0Z" transform="matrix(0.921, 0.391, -0.391, 0.921, 65.689, 6035.161)"/><path class="a" d="M4,0,8,6H0Z" transform="matrix(0.921, 0.391, -0.391, 0.921, 85.019, 6043.366)"/><path class="a" d="M4,0,8,6H0Z" transform="matrix(0.921, 0.391, -0.391, 0.921, 104.35, 6051.572)"/><path class="a" d="M4,0,8,6H0Z" transform="matrix(0.921, 0.391, -0.391, 0.921, 123.68, 6059.777)"/><path class="a" d="M4,0,8,6H0Z" transform="matrix(0.921, 0.391, -0.391, 0.921, 143.011, 6067.982)"/><path class="a" d="M4,0,8,6H0Z" transform="matrix(0.921, 0.391, -0.391, 0.921, 162.342, 6076.188)"/><path class="a" d="M4,0,8,6H0Z" transform="matrix(0.921, 0.391, -0.391, 0.921, 38.934, 6044.445)"/><path class="a" d="M4,0,8,6H0Z" transform="matrix(0.921, 0.391, -0.391, 0.921, 58.265, 6052.65)"/><path class="a" d="M4,0,8,6H0Z" transform="matrix(0.921, 0.391, -0.391, 0.921, 77.595, 6060.856)"/><path class="a" d="M4,0,8,6H0Z" transform="matrix(0.921, 0.391, -0.391, 0.921, 96.926, 6069.061)"/><path class="a" d="M4,0,8,6H0Z" transform="matrix(0.921, 0.391, -0.391, 0.921, 116.256, 6077.267)"/><path class="a" d="M4,0,8,6H0Z" transform="matrix(0.921, 0.391, -0.391, 0.921, 135.587, 6085.472)"/><path class="a" d="M4,0,8,6H0Z" transform="matrix(0.921, 0.391, -0.391, 0.921, 154.918, 6093.677)"/><path class="a" d="M4,0,8,6H0Z" transform="matrix(0.921, 0.391, -0.391, 0.921, 31.51, 6061.935)"/><path class="a" d="M4,0,8,6H0Z" transform="matrix(0.921, 0.391, -0.391, 0.921, 50.841, 6070.14)"/><path class="a" d="M4,0,8,6H0Z" transform="matrix(0.921, 0.391, -0.391, 0.921, 70.171, 6078.346)"/><path class="a" d="M4,0,8,6H0Z" transform="matrix(0.921, 0.391, -0.391, 0.921, 89.502, 6086.551)"/><path class="a" d="M4,0,8,6H0Z" transform="matrix(0.921, 0.391, -0.391, 0.921, 108.833, 6094.756)"/><path class="a" d="M4,0,8,6H0Z" transform="matrix(0.921, 0.391, -0.391, 0.921, 128.163, 6102.961)"/><path class="a" d="M4,0,8,6H0Z" transform="matrix(0.921, 0.391, -0.391, 0.921, 147.494, 6111.167)"/><path class="a" d="M4,0,8,6H0Z" transform="matrix(0.921, 0.391, -0.391, 0.921, 24.086, 6079.424)"/><path class="a" d="M4,0,8,6H0Z" transform="matrix(0.921, 0.391, -0.391, 0.921, 43.417, 6087.63)"/><path class="a" d="M4,0,8,6H0Z" transform="matrix(0.921, 0.391, -0.391, 0.921, 62.747, 6095.835)"/><path class="a" d="M4,0,8,6H0Z" transform="matrix(0.921, 0.391, -0.391, 0.921, 82.078, 6104.041)"/><path class="a" d="M4,0,8,6H0Z" transform="matrix(0.921, 0.391, -0.391, 0.921, 101.409, 6112.246)"/><path class="a" d="M4,0,8,6H0Z" transform="matrix(0.921, 0.391, -0.391, 0.921, 120.739, 6120.451)"/><path class="a" d="M4,0,8,6H0Z" transform="matrix(0.921, 0.391, -0.391, 0.921, 140.07, 6128.656)"/><path class="a" d="M4,0,8,6H0Z" transform="matrix(0.921, 0.391, -0.391, 0.921, 16.662, 6096.914)"/><path class="a" d="M4,0,8,6H0Z" transform="matrix(0.921, 0.391, -0.391, 0.921, 35.993, 6105.119)"/><path class="a" d="M4,0,8,6H0Z" transform="matrix(0.921, 0.391, -0.391, 0.921, 55.324, 6113.325)"/><path class="a" d="M4,0,8,6H0Z" transform="matrix(0.921, 0.391, -0.391, 0.921, 74.654, 6121.53)"/><path class="a" d="M4,0,8,6H0Z" transform="matrix(0.921, 0.391, -0.391, 0.921, 93.985, 6129.735)"/><path class="a" d="M4,0,8,6H0Z" transform="matrix(0.921, 0.391, -0.391, 0.921, 113.315, 6137.941)"/><path class="a" d="M4,0,8,6H0Z" transform="matrix(0.921, 0.391, -0.391, 0.921, 132.646, 6146.146)"/><path class="a" d="M4,0,8,6H0Z" transform="matrix(0.921, 0.391, -0.391, 0.921, 9.238, 6114.403)"/><path class="a" d="M4,0,8,6H0Z" transform="matrix(0.921, 0.391, -0.391, 0.921, 28.569, 6122.609)"/><path class="a" d="M4,0,8,6H0Z" transform="matrix(0.921, 0.391, -0.391, 0.921, 47.9, 6130.814)"/><path class="a" d="M4,0,8,6H0Z" transform="matrix(0.921, 0.391, -0.391, 0.921, 67.23, 6139.02)"/><path class="a" d="M4,0,8,6H0Z" transform="matrix(0.921, 0.391, -0.391, 0.921, 86.561, 6147.225)"/><path class="a" d="M4,0,8,6H0Z" transform="matrix(0.921, 0.391, -0.391, 0.921, 105.891, 6155.43)"/><path class="a" d="M4,0,8,6H0Z" transform="matrix(0.921, 0.391, -0.391, 0.921, 125.222, 6163.636)"/><path class="a" d="M4,0,8,6H0Z" transform="matrix(0.921, 0.391, -0.391, 0.921, 1.815, 6131.893)"/><path class="a" d="M4,0,8,6H0Z" transform="matrix(0.921, 0.391, -0.391, 0.921, 21.145, 6140.099)"/><path class="a" d="M4,0,8,6H0Z" transform="matrix(0.921, 0.391, -0.391, 0.921, 40.476, 6148.304)"/><path class="a" d="M4,0,8,6H0Z" transform="matrix(0.921, 0.391, -0.391, 0.921, 59.806, 6156.509)"/><path class="a" d="M4,0,8,6H0Z" transform="matrix(0.921, 0.391, -0.391, 0.921, 79.137, 6164.714)"/><path class="a" d="M4,0,8,6H0Z" transform="matrix(0.921, 0.391, -0.391, 0.921, 98.468, 6172.92)"/><path class="a" d="M4,0,8,6H0Z" transform="matrix(0.921, 0.391, -0.391, 0.921, 117.798, 6181.125)"/><path class="a" d="M4,0,8,6H0Z" transform="matrix(0.921, 0.391, -0.391, 0.921, -5.609, 6149.383)"/><path class="a" d="M4,0,8,6H0Z" transform="matrix(0.921, 0.391, -0.391, 0.921, 13.721, 6157.588)"/><path class="a" d="M4,0,8,6H0Z" transform="matrix(0.921, 0.391, -0.391, 0.921, 33.052, 6165.793)"/><path class="a" d="M4,0,8,6H0Z" transform="matrix(0.921, 0.391, -0.391, 0.921, 52.382, 6173.999)"/><path class="a" d="M4,0,8,6H0Z" transform="matrix(0.921, 0.391, -0.391, 0.921, 71.713, 6182.204)"/><path class="a" d="M4,0,8,6H0Z" transform="matrix(0.921, 0.391, -0.391, 0.921, 91.044, 6190.41)"/><path class="a" d="M4,0,8,6H0Z" transform="matrix(0.921, 0.391, -0.391, 0.921, 110.374, 6198.615)"/></g></svg>