<svg xmlns="http://www.w3.org/2000/svg" width="199.493" height="91" viewBox="0 0 199.493 91"><defs><style>.a{opacity:0.1;}.b{fill:#e743af;}</style></defs><g class="a" transform="translate(1925.993 -427.5) rotate(90)"><circle class="b" cx="3" cy="3" r="3" transform="translate(518.5 1726.5) rotate(90)"/><circle class="b" cx="3" cy="3" r="3" transform="translate(518.5 1743.5) rotate(90)"/><circle class="b" cx="3" cy="3" r="3" transform="translate(518.5 1760.5) rotate(90)"/><circle class="b" cx="3" cy="3" r="3" transform="translate(518.5 1774.873) rotate(90)"/><circle class="b" cx="3" cy="3" r="3" transform="translate(518.5 1790.998) rotate(90)"/><circle class="b" cx="3" cy="3" r="3" transform="translate(518.5 1807.122) rotate(90)"/><circle class="b" cx="3" cy="3" r="3" transform="translate(518.5 1823.247) rotate(90)"/><circle class="b" cx="3" cy="3" r="3" transform="translate(518.5 1839.371) rotate(90)"/><circle class="b" cx="3" cy="3" r="3" transform="translate(518.5 1855.495) rotate(90)"/><circle class="b" cx="3" cy="3" r="3" transform="translate(518.5 1871.62) rotate(90)"/><circle class="b" cx="3" cy="3" r="3" transform="translate(518.5 1885.993) rotate(90)"/><circle class="b" cx="3" cy="3" r="3" transform="translate(518.5 1902.993) rotate(90)"/><circle class="b" cx="3" cy="3" r="3" transform="translate(518.5 1919.993) rotate(90)"/><circle class="b" cx="3" cy="3" r="3" transform="translate(450.5 1726.5) rotate(90)"/><circle class="b" cx="3" cy="3" r="3" transform="translate(450.5 1743.5) rotate(90)"/><circle class="b" cx="3" cy="3" r="3" transform="translate(450.5 1760.5) rotate(90)"/><circle class="b" cx="3" cy="3" r="3" transform="translate(450.5 1774.873) rotate(90)"/><circle class="b" cx="3" cy="3" r="3" transform="translate(450.5 1790.998) rotate(90)"/><circle class="b" cx="3" cy="3" r="3" transform="translate(450.5 1807.122) rotate(90)"/><circle class="b" cx="3" cy="3" r="3" transform="translate(450.5 1823.247) rotate(90)"/><circle class="b" cx="3" cy="3" r="3" transform="translate(501.5 1726.5) rotate(90)"/><circle class="b" cx="3" cy="3" r="3" transform="translate(501.5 1743.5) rotate(90)"/><circle class="b" cx="3" cy="3" r="3" transform="translate(501.5 1760.5) rotate(90)"/><circle class="b" cx="3" cy="3" r="3" transform="translate(501.5 1774.873) rotate(90)"/><circle class="b" cx="3" cy="3" r="3" transform="translate(501.5 1790.998) rotate(90)"/><circle class="b" cx="3" cy="3" r="3" transform="translate(501.5 1807.122) rotate(90)"/><circle class="b" cx="3" cy="3" r="3" transform="translate(501.5 1823.247) rotate(90)"/><circle class="b" cx="3" cy="3" r="3" transform="translate(501.5 1839.371) rotate(90)"/><circle class="b" cx="3" cy="3" r="3" transform="translate(501.5 1855.495) rotate(90)"/><circle class="b" cx="3" cy="3" r="3" transform="translate(501.5 1871.62) rotate(90)"/><circle class="b" cx="3" cy="3" r="3" transform="translate(501.5 1885.993) rotate(90)"/><circle class="b" cx="3" cy="3" r="3" transform="translate(501.5 1902.993) rotate(90)"/><circle class="b" cx="3" cy="3" r="3" transform="translate(501.5 1919.993) rotate(90)"/><circle class="b" cx="3" cy="3" r="3" transform="translate(433.5 1726.5) rotate(90)"/><circle class="b" cx="3" cy="3" r="3" transform="translate(433.5 1743.5) rotate(90)"/><circle class="b" cx="3" cy="3" r="3" transform="translate(433.5 1760.5) rotate(90)"/><circle class="b" cx="3" cy="3" r="3" transform="translate(433.5 1774.873) rotate(90)"/><circle class="b" cx="3" cy="3" r="3" transform="translate(433.5 1790.998) rotate(90)"/><circle class="b" cx="3" cy="3" r="3" transform="translate(433.5 1807.122) rotate(90)"/><circle class="b" cx="3" cy="3" r="3" transform="translate(433.5 1823.247) rotate(90)"/><circle class="b" cx="3" cy="3" r="3" transform="translate(484.5 1726.5) rotate(90)"/><circle class="b" cx="3" cy="3" r="3" transform="translate(484.5 1743.5) rotate(90)"/><circle class="b" cx="3" cy="3" r="3" transform="translate(484.5 1760.5) rotate(90)"/><circle class="b" cx="3" cy="3" r="3" transform="translate(484.5 1774.873) rotate(90)"/><circle class="b" cx="3" cy="3" r="3" transform="translate(484.5 1790.998) rotate(90)"/><circle class="b" cx="3" cy="3" r="3" transform="translate(484.5 1807.122) rotate(90)"/><circle class="b" cx="3" cy="3" r="3" transform="translate(484.5 1823.247) rotate(90)"/><circle class="b" cx="3" cy="3" r="3" transform="translate(484.5 1839.371) rotate(90)"/><circle class="b" cx="3" cy="3" r="3" transform="translate(484.5 1855.495) rotate(90)"/><circle class="b" cx="3" cy="3" r="3" transform="translate(484.5 1871.62) rotate(90)"/><circle class="b" cx="3" cy="3" r="3" transform="translate(484.5 1885.993) rotate(90)"/><circle class="b" cx="3" cy="3" r="3" transform="translate(484.5 1902.993) rotate(90)"/><circle class="b" cx="3" cy="3" r="3" transform="translate(484.5 1919.993) rotate(90)"/><circle class="b" cx="3" cy="3" r="3" transform="translate(450.5 1839.371) rotate(90)"/><circle class="b" cx="3" cy="3" r="3" transform="translate(450.5 1855.495) rotate(90)"/><circle class="b" cx="3" cy="3" r="3" transform="translate(450.5 1871.62) rotate(90)"/><circle class="b" cx="3" cy="3" r="3" transform="translate(450.5 1885.993) rotate(90)"/><circle class="b" cx="3" cy="3" r="3" transform="translate(450.5 1902.993) rotate(90)"/><circle class="b" cx="3" cy="3" r="3" transform="translate(450.5 1919.993) rotate(90)"/><circle class="b" cx="3" cy="3" r="3" transform="translate(467.5 1726.5) rotate(90)"/><circle class="b" cx="3" cy="3" r="3" transform="translate(467.5 1743.5) rotate(90)"/><circle class="b" cx="3" cy="3" r="3" transform="translate(467.5 1760.5) rotate(90)"/><circle class="b" cx="3" cy="3" r="3" transform="translate(467.5 1774.873) rotate(90)"/><circle class="b" cx="3" cy="3" r="3" transform="translate(467.5 1790.998) rotate(90)"/><circle class="b" cx="3" cy="3" r="3" transform="translate(467.5 1807.122) rotate(90)"/><circle class="b" cx="3" cy="3" r="3" transform="translate(467.5 1823.247) rotate(90)"/><circle class="b" cx="3" cy="3" r="3" transform="translate(467.5 1839.371) rotate(90)"/><circle class="b" cx="3" cy="3" r="3" transform="translate(467.5 1855.495) rotate(90)"/><circle class="b" cx="3" cy="3" r="3" transform="translate(467.5 1871.62) rotate(90)"/><circle class="b" cx="3" cy="3" r="3" transform="translate(467.5 1885.993) rotate(90)"/><circle class="b" cx="3" cy="3" r="3" transform="translate(467.5 1902.993) rotate(90)"/><circle class="b" cx="3" cy="3" r="3" transform="translate(467.5 1919.993) rotate(90)"/><circle class="b" cx="3" cy="3" r="3" transform="translate(433.5 1839.371) rotate(90)"/><circle class="b" cx="3" cy="3" r="3" transform="translate(433.5 1855.495) rotate(90)"/><circle class="b" cx="3" cy="3" r="3" transform="translate(433.5 1871.62) rotate(90)"/><circle class="b" cx="3" cy="3" r="3" transform="translate(433.5 1885.993) rotate(90)"/><circle class="b" cx="3" cy="3" r="3" transform="translate(433.5 1902.993) rotate(90)"/><circle class="b" cx="3" cy="3" r="3" transform="translate(433.5 1919.993) rotate(90)"/></g></svg>