<svg xmlns="http://www.w3.org/2000/svg" width="39.099" height="46.532" viewBox="0 0 39.099 46.532"><defs><style>.a{fill:#fff;}</style></defs><path class="a" d="M56.161,11.981c-.024-1.256-.047-2.443-.047-3.591a1.629,1.629,0,0,0-1.629-1.629c-6.966,0-12.269-2-16.689-6.3a1.628,1.628,0,0,0-2.271,0c-4.42,4.3-9.723,6.3-16.688,6.3A1.629,1.629,0,0,0,17.209,8.39c0,1.148-.023,2.336-.047,3.592-.223,11.691-.529,27.7,18.965,34.46a1.627,1.627,0,0,0,1.067,0C56.689,39.685,56.384,23.673,56.161,11.981Zm-19.5,31.194C19.942,37.1,20.195,23.8,20.419,12.044c.013-.705.026-1.389.036-2.059A25.116,25.116,0,0,0,36.661,3.843,25.119,25.119,0,0,0,52.868,9.985c.009.67.022,1.353.036,2.058C53.128,23.8,53.381,37.1,36.661,43.175Z" transform="translate(-17.112 0)"/><path class="a" d="M82.505,79.363l-7.861,7.861L71.29,83.869a1.629,1.629,0,0,0-2.3,2.3l4.506,4.506a1.629,1.629,0,0,0,2.3,0l9.012-9.012a1.629,1.629,0,0,0-2.3-2.3Z" transform="translate(-57.348 -61.755)"/></svg>